<?xml version="1.0" encoding="UTF-8" standalone="no"?>
<svg
   xmlns:dc="http://purl.org/dc/elements/1.1/"
   xmlns:cc="http://creativecommons.org/ns#"
   xmlns:rdf="http://www.w3.org/1999/02/22-rdf-syntax-ns#"
   xmlns:svg="http://www.w3.org/2000/svg"
   xmlns="http://www.w3.org/2000/svg"
   xmlns:sodipodi="http://sodipodi.sourceforge.net/DTD/sodipodi-0.dtd"
   xmlns:inkscape="http://www.inkscape.org/namespaces/inkscape"
   width="559mm"
   height="175mm"
   viewBox="0 0 559.00003 175"
   version="1.1"
   id="svg8"
   inkscape:version="1.0.2-2 (e86c870879, 2021-01-15)"
   sodipodi:docname="title.svg">
  <defs
     id="defs2">
    <clipPath
       clipPathUnits="userSpaceOnUse"
       id="clipPath906">
      <rect
         style="fill:#000000;stroke:#000000;stroke-width:0.299773"
         id="rect908"
         width="556.20917"
         height="246.17754"
         x="15.290842"
         y="17.649847" />
    </clipPath>
    <clipPath
       clipPathUnits="userSpaceOnUse"
       id="clipPath957">
      <rect
         style="fill:#ffffff;fill-opacity:1;fill-rule:nonzero;stroke:#000000;stroke-width:0;stroke-miterlimit:4;stroke-dasharray:none;stroke-dashoffset:0;stroke-opacity:1"
         id="rect959"
         width="750.03674"
         height="235.57329"
         x="6.5357919"
         y="39.330502" />
    </clipPath>
    <clipPath
       clipPathUnits="userSpaceOnUse"
       id="clipPath961">
      <rect
         style="fill:#ffffff;fill-opacity:1;fill-rule:nonzero;stroke:#000000;stroke-width:0;stroke-miterlimit:4;stroke-dasharray:none;stroke-dashoffset:0;stroke-opacity:1"
         id="rect963"
         width="556.92023"
         height="174.91881"
         x="13.785061"
         y="50.777096" />
    </clipPath>
  </defs>
  <sodipodi:namedview
     id="base"
     pagecolor="#9e9a75"
     bordercolor="#666666"
     borderopacity="1.0"
     inkscape:pageopacity="0"
     inkscape:pageshadow="2"
     inkscape:zoom="0.35"
     inkscape:cx="399.85745"
     inkscape:cy="720.41902"
     inkscape:document-units="mm"
     inkscape:current-layer="layer2"
     inkscape:document-rotation="0"
     showgrid="false"
     units="mm"
     height="419mm"
     inkscape:window-width="1920"
     inkscape:window-height="1017"
     inkscape:window-x="1912"
     inkscape:window-y="7"
     inkscape:window-maximized="1" />
  <metadata
     id="metadata5">
    <rdf:RDF>
      <cc:Work
         rdf:about="">
        <dc:format>image/svg+xml</dc:format>
        <dc:type
           rdf:resource="http://purl.org/dc/dcmitype/StillImage" />
        <dc:title></dc:title>
      </cc:Work>
    </rdf:RDF>
  </metadata>
  <g
     inkscape:groupmode="layer"
     id="layer2"
     inkscape:label="background">
    <rect
       style="fill:#9e9a75;fill-opacity:1;fill-rule:nonzero;stroke:#000000;stroke-width:0;stroke-miterlimit:4;stroke-dasharray:none;stroke-dashoffset:0;stroke-opacity:1"
       id="rect976"
       width="556.92023"
       height="174.91881"
       x="4.79036"
       y="45.53162"
       transform="matrix(1.004064,0,0,1.004064,-4.8098281,-45.716661)" />
  </g>
  <g
     inkscape:label="Layer 1"
     inkscape:groupmode="layer"
     id="layer1">
    <g
       id="g945"
       transform="matrix(1.004064,0,0,1.004064,-4.8098282,-45.716661)">
      <g
         id="g974"
         transform="translate(1.5057853,-33.127275)">
        <path
           fill="#000000"
           d="m 85.37641,396.5972 a 9.8684211,9.8684211 0 1 1 0,3.94737 H -1.6630971 v -3.94737 z m 315.78943,94.73685 a 9.8684211,9.8684211 0 1 1 0,3.94734 H 160.17906 v -3.94734 z m 114.07895,-90.78948 a 9.8684211,9.8684211 0 1 1 0,-3.94737 h 83.09211 v 3.94737 z m 0,31.57895 a 9.8684211,9.8684211 0 1 1 0,-3.94738 h 83.09211 v 3.94738 z m 12.23685,-224.99999 a 9.8684211,9.8684211 0 1 1 0,3.94736 H 357.35005 a 9.8684211,9.8684211 0 1 1 0,-3.94736 z M 22.218493,112.38668 a 9.8684211,9.8684211 0 1 1 0,3.94737 H -1.6630971 v -3.94737 z m 366.710517,67.10526 a 9.8684211,9.8684211 0 1 1 0,-3.94737 h 170.13157 a 9.8684211,9.8684211 0 1 1 0,3.94737 z M 507.54743,-21.626464 a 9.8684211,9.8684211 0 1 1 -3.94738,0 v -23.881584 h 3.94738 z M 381.23164,388.89983 a 9.8684211,9.8684211 0 1 1 -3.94737,0 V 281.92615 a 9.8684211,9.8684211 0 1 1 3.94737,0 z M 475.96848,-2.2843646 V 112.38668 H 598.3369 v 3.94737 H 472.0211 V -2.2843646 a 9.8684211,9.8684211 0 1 1 3.94738,0 z m 31.57895,31.5789386 v 51.513168 h 90.78947 v 3.94736 H 503.60005 V 29.294574 a 9.8684211,9.8684211 0 1 1 3.94738,0 z M 254.91584,218.76826 v 146.25 h 31.57896 v 23.88157 a 9.8684211,9.8684211 0 1 1 -3.94736,0 V 368.96561 H 250.96848 V 218.76826 a 9.8684211,9.8684211 0 1 1 3.94736,0 z m -11.64472,-43.22369 a 9.8684211,9.8684211 0 1 1 0,3.94737 h -19.9342 v 94.73685 h -55.46054 a 9.8684211,9.8684211 0 1 1 0,-3.94738 h 51.51315 v -94.73684 z m -12.23685,256.57895 a 9.8684211,9.8684211 0 1 1 0,-3.94738 H 345.70532 V 281.92615 a 9.8684211,9.8684211 0 1 1 3.94738,0 v 150.19737 z m -31.57895,-126.3158 a 9.8684211,9.8684211 0 1 1 0,-3.94737 h 23.8816 v 94.73685 h 19.9342 a 9.8684211,9.8684211 0 1 1 0,3.94737 h -23.88159 v -94.73685 z m -70.85527,209.40789 a 9.8684211,9.8684211 0 1 1 -3.94731,0 V 495.28139 H 97.021141 v 59.21053 H 93.07375 v -63.15787 h 35.5263 z M 464.32374,301.86035 a 9.8684211,9.8684211 0 1 1 0,3.94737 h -19.93421 v 185.52633 h 94.73683 v 63.15787 h -3.94737 V 495.28139 H 440.44217 V 301.86035 Z m 50.92105,-59.21052 a 9.8684211,9.8684211 0 1 1 0,-3.94737 h 23.88157 v 87.03948 a 9.8684211,9.8684211 0 1 1 -3.94737,0 V 242.64983 Z M 388.92901,432.12352 a 9.8684211,9.8684211 0 1 1 0,-3.94738 h 19.9342 V 270.28141 h 31.57896 v -27.63158 h -83.09212 a 9.8684211,9.8684211 0 1 1 0,-3.94737 h 87.03948 v 35.52633 H 412.81058 V 432.12352 Z M 559.06058,17.649847 a 9.8684211,9.8684211 0 1 1 0,3.94737 h -23.88159 v -67.105265 h 3.94737 V 17.649847 Z M 191.75797,155.61037 v 87.03946 h -87.0395 a 9.8684211,9.8684211 0 1 1 0,-3.94737 h 83.0921 v -83.09209 a 9.8684211,9.8684211 0 1 1 3.9474,0 z M 104.71847,21.597217 a 9.8684211,9.8684211 0 1 1 0,-3.94737 h 51.51319 v -63.157895 h 3.9474 v 67.105265 z m 118.61845,7.697357 V 84.755102 H 160.17906 V 211.07089 h -23.88161 a 9.8684211,9.8684211 0 1 1 0,-3.94736 h 19.93421 V 80.807742 h 63.15787 V 29.294574 a 9.8684211,9.8684211 0 1 1 3.94739,0 z m -23.8816,87.039476 a 9.8684211,9.8684211 0 1 1 0,-3.94737 h 51.51316 V 29.294574 a 9.8684211,9.8684211 0 1 1 3.94736,0 V 116.33405 Z M 231.03427,-9.9817336 a 9.8684211,9.8684211 0 1 1 0,-3.9473644 h 55.46053 v 87.03946 a 9.8684211,9.8684211 0 1 1 -3.94736,0 V -9.9817336 Z M 432.74479,522.91298 a 9.8684211,9.8684211 0 1 1 0,3.94737 H 191.75797 v 27.63157 h -3.9474 V 522.91298 Z M 475.96848,250.3472 v 19.93421 h 31.57895 v 67.10526 h -31.57895 v 122.36842 h 94.73684 v 94.73683 h -3.94737 V 463.70246 H 472.0211 V 333.43931 h 31.57895 V 274.22879 H 472.0211 V 250.3472 a 9.8684211,9.8684211 0 1 1 3.94738,0 z M 104.71847,-9.9817336 a 9.8684211,9.8684211 0 1 1 0,-3.9473644 h 19.93427 V -41.560677 H 93.07375 v -3.947371 h 35.5263 V -9.9817336 Z M 325.77112,53.176162 a 9.8684211,9.8684211 0 1 1 0,-3.947373 h 51.51315 v -94.736837 h 98.68421 v 3.947371 h -94.73684 v 94.736839 z m -94.73685,-94.736839 a 9.870396,9.870396 0 0 1 -19.34209,-3.947371 h 4.08552 a 5.9210524,5.9210524 0 1 0 11.17104,0 H 349.6527 V 21.597217 H 314.12638 V -2.2843646 a 9.8684211,9.8684211 0 1 1 3.94736,0 V 17.649847 h 27.63158 v -59.210524 z m 0,189.473677 a 9.8684211,9.8684211 0 1 1 0,-3.94737 h 37.69739 l 63.15787,-63.157888 h 76.97368 V -2.2843646 a 9.8684211,9.8684211 0 1 1 3.94737,0 V 84.755102 H 333.5277 L 270.3698,147.913 Z m 55.46053,177.82894 a 9.8684211,9.8684211 0 1 1 -3.94736,0 V 174.73535 l 62.34866,-62.34867 h 95.54607 V -2.2843646 a 9.8684211,9.8684211 0 1 1 3.94736,0 V 116.33405 h -97.875 l -60.01973,60.01973 z m 31.57894,63.15789 a 9.8684211,9.8684211 0 1 1 -3.94736,0 V 192.49852 l 48.53289,-48.53289 h 227.98024 a 9.8684211,9.8684211 0 0 1 7.69739,-7.69737 v 4.08552 a 5.9210524,5.9210524 0 0 0 0,11.17106 v 4.08553 A 9.8684211,9.8684211 0 0 1 590.63951,147.913 H 364.2777 l -46.20396,46.20394 z M 33.863217,262.58405 a 9.8684211,9.8684211 0 1 1 -3.947318,0 v -6.92764 L 124.65274,160.91958 V 49.228789 h 63.15783 v -94.736837 h 3.9474 v 98.68421 H 128.60005 V 162.538 L 33.863217,257.27483 Z M 97.021141,60.873532 V 146.74852 L 2.2842958,241.48535 V 365.01826 H 53.797414 a 9.8684211,9.8684211 0 1 1 0,3.94735 H -1.6630971 V 239.86694 L 93.07375,145.1301 V 60.873532 a 9.8684211,9.8684211 0 1 1 3.947391,0 z m -31.578929,31.57895 v 38.506568 l -67.1053091,67.10526 v -5.56579 L 61.49482,129.34062 V 92.452482 a 9.8684211,9.8684211 0 1 1 3.947392,0 z M 22.218493,17.649847 a 9.8684211,9.8684211 0 1 1 0,3.94737 H 16.909276 L -1.6630971,40.169577 V 34.623526 L 15.290842,17.649847 Z M 546.82373,53.176162 a 9.8684211,9.8684211 0 1 1 0,-3.947373 h 36.88817 l 14.625,-14.625003 v 5.565791 L 585.33031,53.176162 Z M 515.24479,368.96561 a 9.8684211,9.8684211 0 1 1 0,-3.94735 h 51.51316 v -140.9408 l 31.57895,-31.57894 v 5.56579 l -27.63158,27.63158 v 143.26972 z m -410.52632,63.15791 a 9.8684211,9.8684211 0 1 1 0,-3.94738 h 19.93427 V 383.59061 L 78.448761,337.38667 H 41.560623 a 9.8684211,9.8684211 0 1 1 0,-3.94736 h 38.506571 l 48.532856,48.53289 v 50.15132 z m 296.44737,27.63157 a 9.8684211,9.8684211 0 1 1 0,3.94737 H 187.81057 V 351.99192 L 110.04744,274.22879 H 73.139545 a 9.8684211,9.8684211 0 1 1 0,-3.94738 h 38.486875 l 80.13155,80.13159 v 109.34209 z m -296.44737,3.94737 a 9.8684211,9.8684211 0 1 1 0,-3.94737 h 51.51319 V 367.80114 L 94.238264,305.80772 H 41.560623 a 9.8684211,9.8684211 0 1 1 0,-3.94737 h 54.295996 l 64.322441,64.32237 v 97.51974 z M 65.442212,33.044582 v 3.17763 L 16.909276,84.755102 H -1.6630971 v -3.94736 H 15.290842 L 61.49482,34.603786 v -80.111834 h 3.947392 z M 2.2842958,546.79452 a 9.8684211,9.8684211 0 0 1 7.6973314,7.6974 H 5.8961565 a 5.9210524,5.9210524 0 0 0 -7.5592536,-3.61184 V 459.75509 H 33.863217 v 94.73683 H 29.915899 V 463.70246 H 2.2842958 Z M 65.442212,430.14983 V 554.49192 H 61.49482 V 432.12352 H -1.6630971 v -3.94738 H 65.442212 Z M 31.889559,-9.9817336 H -1.6630971 V -13.929098 H 29.915899 v -31.57895 h 3.947318 V -9.9817336 Z M 570.70532,-13.929098 h 27.63158 v 3.9473644 H 566.75795 V -45.508048 h 3.94737 z M 507.54743,524.88666 v 29.60526 h -3.94738 v -27.63157 h -27.63157 v 27.63157 h -3.94738 v -31.57894 h 35.52633 z M -1.6630971,136.26826 a 9.9078943,9.9078943 0 0 1 11.8421051,9.67105 9.8684211,9.8684211 0 0 1 -11.8421051,9.67106 v -4.08553 a 5.9210524,5.9210524 0 1 0 0,-11.17106 z M 156.23166,491.33405 h 3.9474 v 63.15787 h -3.9474 z m 74.80261,63.15787 h -4.08553 a 5.9210524,5.9210524 0 0 0 -11.17104,0 h -4.08552 a 9.8684211,9.8684211 0 0 1 19.34209,0 z M 9.9816272,-45.508048 A 9.9078943,9.9078943 0 0 1 -1.6630971,-33.86331 v -4.085521 a 5.9210524,5.9210524 0 0 0 7.5592536,-7.559217 z m 580.6578828,0 h 4.08554 a 5.9210524,5.9210524 0 0 0 3.61185,7.559217 v 4.085521 a 9.8684211,9.8684211 0 0 1 -7.69739,-11.644738 z m 7.69739,592.302568 v 4.08556 a 5.9210524,5.9210524 0 0 0 -3.61185,3.61184 h -4.08554 a 9.8684211,9.8684211 0 0 1 7.69739,-7.6974 z M 189.78432,151.86036 a 5.9210524,5.9210524 0 1 0 0,-11.8421 5.9210524,5.9210524 0 0 0 0,11.8421 z m 0,-31.57895 a 5.921055,5.921055 0 1 0 0,-11.8421 5.921055,5.921055 0 0 0 0,11.8421 z m 31.5789,31.57895 a 5.9210524,5.9210524 0 1 0 0,-11.8421 5.9210524,5.9210524 0 0 0 0,11.8421 z m 31.57896,31.57895 a 5.921055,5.921055 0 1 0 0,-11.84211 5.921055,5.921055 0 0 0 0,11.84211 z m 0,31.57895 a 5.921055,5.921055 0 1 0 0,-11.84211 5.921055,5.921055 0 0 0 0,11.84211 z m -94.73687,63.15789 a 5.921055,5.921055 0 1 0 0,-11.8421 5.921055,5.921055 0 0 0 0,11.8421 z m 31.57901,31.57894 a 5.9210524,5.9210524 0 1 0 0,-11.84209 5.9210524,5.9210524 0 0 0 0,11.84209 z m 63.15786,94.73683 a 5.9210524,5.9210524 0 1 0 0,-11.84209 5.9210524,5.9210524 0 0 0 0,11.84209 z m -31.57896,31.57895 a 5.9210524,5.9210524 0 1 0 0,-11.84209 5.9210524,5.9210524 0 0 0 0,11.84209 z m 63.1579,-31.57895 a 5.9210524,5.9210524 0 1 0 0,-11.84209 5.9210524,5.9210524 0 0 0 0,11.84209 z m 0,-63.15788 a 5.921055,5.921055 0 1 0 0,-11.84211 5.921055,5.921055 0 0 0 0,11.84211 z m 31.57894,63.15788 a 5.9210524,5.9210524 0 1 0 0,-11.84209 5.9210524,5.9210524 0 0 0 0,11.84209 z m 63.1579,31.57895 a 5.9210524,5.9210524 0 1 0 0,-11.84209 5.9210524,5.9210524 0 0 0 0,11.84209 z m 0,-31.57895 a 5.9210524,5.9210524 0 1 0 0,-11.84209 5.9210524,5.9210524 0 0 0 0,11.84209 z M 347.67901,278.17615 a 5.921055,5.921055 0 1 0 0,-11.8421 5.921055,5.921055 0 0 0 0,11.8421 z m 31.57895,0 a 5.921055,5.921055 0 1 0 0,-11.8421 5.921055,5.921055 0 0 0 0,11.8421 z m 31.57895,189.47368 a 5.921055,5.921055 0 1 0 0,-11.84211 5.921055,5.921055 0 0 0 0,11.84211 z m 0,31.57895 a 5.92106,5.92106 0 1 0 0,-11.84212 5.92106,5.92106 0 0 0 0,11.84212 z m 31.57893,31.57894 a 5.921055,5.921055 0 1 0 0,-11.84211 5.921055,5.921055 0 0 0 0,11.84211 z M 473.99479,246.5972 a 5.921055,5.921055 0 1 0 0,-11.84211 5.921055,5.921055 0 0 0 0,11.84211 z m 0,63.15789 a 5.9210524,5.9210524 0 1 0 0,-11.84209 5.9210524,5.9210524 0 0 0 0,11.84209 z m 31.57895,-63.15789 a 5.921055,5.921055 0 1 0 0,-11.84211 5.921055,5.921055 0 0 0 0,11.84211 z m 31.57895,-31.57894 a 5.921055,5.921055 0 1 0 0,-11.84211 5.921055,5.921055 0 0 0 0,11.84211 z m -189.47368,0 a 5.921055,5.921055 0 1 0 0,-11.84211 5.921055,5.921055 0 0 0 0,11.84211 z m 0,31.57894 a 5.921055,5.921055 0 1 0 0,-11.84211 5.921055,5.921055 0 0 0 0,11.84211 z m 31.57895,-63.15789 a 5.921055,5.921055 0 1 0 0,-11.84211 5.921055,5.921055 0 0 0 0,11.84211 z m 189.47368,0 a 5.921055,5.921055 0 1 0 0,-11.84211 5.921055,5.921055 0 0 0 0,11.84211 z M 537.15269,57.123532 a 5.9210585,5.9210585 0 1 0 0,-11.842117 5.9210585,5.9210585 0 0 0 0,11.842117 z M 568.73164,25.54458 a 5.9210524,5.9210524 0 1 0 0,-11.842104 5.9210524,5.9210524 0 0 0 0,11.842104 z m -63.1579,0 a 5.9210524,5.9210524 0 1 0 0,-11.842104 5.9210524,5.9210524 0 0 0 0,11.842104 z m 0,-31.5789436 a 5.9210526,5.9210526 0 1 0 0,-11.8421044 5.9210526,5.9210526 0 0 0 0,11.8421044 z m -31.57895,0 a 5.9210526,5.9210526 0 1 0 0,-11.8421044 5.9210526,5.9210526 0 0 0 0,11.8421044 z m -31.57895,0 a 5.9210526,5.9210526 0 1 0 0,-11.8421044 5.9210526,5.9210526 0 0 0 0,11.8421044 z m -31.57893,0 a 5.9210526,5.9210526 0 1 0 0,-11.8421044 5.9210526,5.9210526 0 0 0 0,11.8421044 z M 95.047476,25.54458 a 5.9210524,5.9210524 0 1 0 0,-11.842104 5.9210524,5.9210524 0 0 0 0,11.842104 z m -63.157917,0 a 5.9210524,5.9210524 0 1 0 0,-11.842104 5.9210524,5.9210524 0 0 0 0,11.842104 z m 63.157917,31.578952 a 5.9210585,5.9210585 0 1 0 0,-11.842117 5.9210585,5.9210585 0 0 0 0,11.842117 z m -31.578997,31.57895 a 5.921055,5.921055 0 1 0 0,-11.84211 5.921055,5.921055 0 0 0 0,11.84211 z M 95.047476,-6.0343636 a 5.9210526,5.9210526 0 1 0 0,-11.8421044 5.9210526,5.9210526 0 0 0 0,11.8421044 z m 0,473.6841936 a 5.921055,5.921055 0 1 0 0,-11.84211 5.921055,5.921055 0 0 0 0,11.84211 z m 31.578924,63.15789 a 5.921055,5.921055 0 1 0 0,-11.84211 5.921055,5.921055 0 0 0 0,11.84211 z M 95.047476,404.49192 a 5.9210524,5.9210524 0 1 0 0,-11.84209 5.9210524,5.9210524 0 0 0 0,11.84209 z m 0,31.57895 a 5.9210524,5.9210524 0 1 0 0,-11.84209 5.9210524,5.9210524 0 0 0 0,11.84209 z M 63.468479,372.913 a 5.92106,5.92106 0 1 0 0,-11.84212 5.92106,5.92106 0 0 0 0,11.84212 z M 221.36322,25.54458 a 5.9210524,5.9210524 0 1 0 0,-11.842104 5.9210524,5.9210524 0 0 0 0,11.842104 z m 31.57896,0 a 5.9210524,5.9210524 0 1 0 0,-11.842104 5.9210524,5.9210524 0 0 0 0,11.842104 z M 221.36322,-6.0343636 a 5.9210526,5.9210526 0 1 0 0,-11.8421044 5.9210526,5.9210526 0 0 0 0,11.8421044 z m 63.1579,94.7368456 a 5.921055,5.921055 0 1 0 0,-11.84211 5.921055,5.921055 0 0 0 0,11.84211 z m 31.57894,-31.57895 a 5.9210585,5.9210585 0 1 0 0,-11.842117 5.9210585,5.9210585 0 0 0 0,11.842117 z m 0,-63.1578956 a 5.9210526,5.9210526 0 1 0 0,-11.8421044 5.9210526,5.9210526 0 0 0 0,11.8421044 z M 537.15269,341.33404 a 5.921055,5.921055 0 1 0 0,-11.84211 5.921055,5.921055 0 0 0 0,11.84211 z M 505.57374,372.913 a 5.92106,5.92106 0 1 0 0,-11.84212 5.92106,5.92106 0 0 0 0,11.84212 z m 0,31.57892 a 5.9210524,5.9210524 0 1 0 0,-11.84209 5.9210524,5.9210524 0 0 0 0,11.84209 z m 0,31.57895 a 5.9210524,5.9210524 0 1 0 0,-11.84209 5.9210524,5.9210524 0 0 0 0,11.84209 z M 31.889559,309.75509 a 5.9210524,5.9210524 0 1 0 0,-11.84209 5.9210524,5.9210524 0 0 0 0,11.84209 z m 0,31.57895 a 5.921055,5.921055 0 1 0 0,-11.84211 5.921055,5.921055 0 0 0 0,11.84211 z m 0,-63.15789 a 5.921055,5.921055 0 1 0 0,-11.8421 5.921055,5.921055 0 0 0 0,11.8421 z m 31.57892,0 a 5.921055,5.921055 0 1 0 0,-11.8421 5.921055,5.921055 0 0 0 0,11.8421 z M 31.889559,120.28141 a 5.921055,5.921055 0 1 0 0,-11.8421 5.921055,5.921055 0 0 0 0,11.8421 z M 95.047476,246.5972 a 5.921055,5.921055 0 1 0 0,-11.84211 5.921055,5.921055 0 0 0 0,11.84211 z M 126.6264,215.01826 a 5.921055,5.921055 0 1 0 0,-11.84211 5.921055,5.921055 0 0 0 0,11.84211 z"
           id="path861"
           style="fill:#1c222e;fill-opacity:1;fill-rule:nonzero;stroke:#000000;stroke-width:0;stroke-miterlimit:4;stroke-dasharray:none;stroke-dashoffset:0;stroke-opacity:1"
           clip-path="url(#clipPath961)"
           transform="translate(-10.500486,27.8818)" />
        <g
           id="g921"
           transform="matrix(0.74252394,0,0,0.74252394,60.026163,56.101005)"
           clip-path="url(#clipPath957)">
          <rect
             style="fill:#604439;fill-opacity:1;fill-rule:nonzero;stroke:#000000;stroke-width:0;stroke-miterlimit:4;stroke-dasharray:none;stroke-dashoffset:0;stroke-opacity:1"
             id="rect910"
             width="297.84521"
             height="71.059525"
             x="149.67857"
             y="112.6369" />
          <g
             id="g848"
             transform="translate(15.375732,24.610633)">
            <text
               xml:space="preserve"
               style="font-style:normal;font-variant:normal;font-weight:normal;font-stretch:normal;font-size:49.8505px;line-height:1.25;font-family:Consolas;-inkscape-font-specification:'Consolas, Normal';font-variant-ligatures:normal;font-variant-caps:normal;font-variant-numeric:normal;font-variant-east-asian:normal;fill:#ffffff;fill-opacity:1;stroke:none;stroke-width:1.24627"
               x="147.87285"
               y="123.82352"
               id="text835"
               transform="scale(0.94895982,1.0537854)"><tspan
                 sodipodi:role="line"
                 id="tspan833"
                 x="147.87285"
                 y="123.82352"
                 style="font-style:normal;font-variant:normal;font-weight:normal;font-stretch:normal;font-size:49.8505px;font-family:Consolas;-inkscape-font-specification:'Consolas, Normal';font-variant-ligatures:normal;font-variant-caps:normal;font-variant-numeric:normal;font-variant-east-asian:normal;fill:#ffffff;fill-opacity:1;stroke-width:1.24627">Brad Reeves</tspan><tspan
                 sodipodi:role="line"
                 x="147.87285"
                 y="186.13664"
                 style="font-style:normal;font-variant:normal;font-weight:normal;font-stretch:normal;font-size:49.8505px;font-family:Consolas;-inkscape-font-specification:'Consolas, Normal';font-variant-ligatures:normal;font-variant-caps:normal;font-variant-numeric:normal;font-variant-east-asian:normal;fill:#ffffff;fill-opacity:1;stroke-width:1.24627"
                 id="tspan837" /></text>
            <text
               xml:space="preserve"
               style="font-style:normal;font-variant:normal;font-weight:normal;font-stretch:normal;font-size:22.5778px;line-height:1.25;font-family:Consolas;-inkscape-font-specification:'Consolas, Normal';font-variant-ligatures:normal;font-variant-caps:normal;font-variant-numeric:normal;font-variant-east-asian:normal;fill:#ffffff;fill-opacity:1;stroke:none;stroke-width:0.264583"
               x="177.6488"
               y="148.24225"
               id="text841"><tspan
                 sodipodi:role="line"
                 id="tspan839"
                 x="177.6488"
                 y="148.24225"
                 style="font-style:normal;font-variant:normal;font-weight:normal;font-stretch:normal;font-size:22.5778px;font-family:Consolas;-inkscape-font-specification:'Consolas, Normal';font-variant-ligatures:normal;font-variant-caps:normal;font-variant-numeric:normal;font-variant-east-asian:normal;fill:#ffffff;fill-opacity:1;stroke-width:0.264583">Software Engineer</tspan></text>
          </g>
        </g>
      </g>
    </g>
  </g>
</svg>
